<svg width="16" height="16" viewBox="0 0 16 16" fill="none" xmlns="http://www.w3.org/2000/svg">
<path fill-rule="evenodd" clip-rule="evenodd" d="M2.06312 2.06311C2.95276 1.17346 4.28402 0.833328 6 0.833328H10C11.716 0.833328 13.0472 1.17346 13.9369 2.06311C14.8265 2.95275 15.1667 4.28401 15.1667 6V10C15.1667 11.716 14.8265 13.0472 13.9369 13.9369C13.0472 14.8265 11.716 15.1667 10 15.1667H6C4.28402 15.1667 2.95276 14.8265 2.06312 13.9369C1.17347 13.0472 0.833336 11.716 0.833336 10V6C0.833336 4.28401 1.17347 2.95275 2.06312 2.06311ZM2.77022 2.77022C2.15987 3.38057 1.83334 4.38264 1.83334 6V10C1.83334 11.6173 2.15987 12.6194 2.77022 13.2298C3.38058 13.8401 4.38265 14.1667 6 14.1667H10C11.6174 14.1667 12.6194 13.8401 13.2298 13.2298C13.8401 12.6194 14.1667 11.6173 14.1667 10V6C14.1667 4.38264 13.8401 3.38057 13.2298 2.77022C12.6194 2.15986 11.6174 1.83333 10 1.83333H6C4.38265 1.83333 3.38058 2.15986 2.77022 2.77022Z" fill="#EFF1F5"/>
<path fill-rule="evenodd" clip-rule="evenodd" d="M11.1872 5.76009C11.3823 5.95552 11.382 6.2721 11.1866 6.46719L7.40658 10.2405C7.21127 10.4355 6.89493 10.4354 6.69978 10.2402L4.81312 8.35355C4.61786 8.15828 4.61786 7.8417 4.81312 7.64644C5.00838 7.45118 5.32496 7.45118 5.52023 7.64644L7.05365 9.17987L10.4801 5.75946C10.6755 5.56437 10.9921 5.56465 11.1872 5.76009Z" fill="#EFF1F5"/>
</svg>
